# xmcd
#
# Track frame offsets: 
#        182
#        15597
#        36745
#        47110
#        60390
#        72480
#        84957
#        94112
#        112495
#        125747
#        138685
#        148850
#
# Disc length: 2152 seconds
#
# Revision: 2
# Processed by: cddbd v1.4PL0 Copyright (c) Steve Scherf et al.
# Submitted via: ExactAudioCopy v0.90b4
#
DISCID=bc08660c
DTITLE=Various Artist - The Cowboy Album
DYEAR=1992
DGENRE=Country
TTITLE0=Ken Curtis and The Sons of the Pioneers - Home On The Range
TTITLE1=Marty Robbins - El Paso
TTITLE2=Gail Davis - Annie Oakley
TTITLE3=Fess Parker - The Ballad Of Davy Crockett
TTITLE4=Vaughn Monroe - (Ghost) Riders In The Sky (A Cowboy Legend)
TTITLE5=Gene Autry - Back In The Saddle Again
TTITLE6=Frankie Laine - Rawhide
TTITLE7=Michael Nesmith - Prairie Lullaby
TTITLE8=Sons Of The Pioneers - The Cowboy's Lament
TTITLE9=Tex Ritter - The Old Chisolm Trail
TTITLE10=Roy Rogers - Happy Trails
TTITLE11=Tex Ritter - High Noon (Do Not Forsake Me)
EXTD=
EXTT0=Ken Curtis And The Sons Of The Pioneers
EXTT1=Marty Robbins
EXTT2=Gail Davis
EXTT3=Fess Parker
EXTT4=Vaughn Monroe
EXTT5=Gene Autry
EXTT6=Frankie Laine
EXTT7=Michael Nesmith
EXTT8=Sons Of The Pioneers
EXTT9=Tex Ritter
EXTT10=Roy Rogers
EXTT11=Tex Ritter
PLAYORDER=
